<svg width="586" height="455" viewBox="0 0 586 455" fill="none" xmlns="http://www.w3.org/2000/svg">
<g clip-path="url(#clip0_30_18)">
<path d="M341.344 80.2112C352.327 80.2112 361.23 70.7063 361.23 58.9815C361.23 47.2567 352.327 37.7519 341.344 37.7519C330.361 37.7519 321.458 47.2567 321.458 58.9815C321.458 70.7063 330.361 80.2112 341.344 80.2112Z" fill="#F2F2F2"/>
<path d="M495.605 395.284C525.164 371.249 539.281 330.861 530.443 292.333C530.223 291.375 529.992 290.42 529.748 289.467C523.888 266.598 509.392 244.862 488.264 237.554C470.524 231.419 451.16 236.137 432.652 233.697C396.322 228.907 368.155 197.525 348.336 164.667C328.517 131.81 313.286 95.0302 286.951 67.885C243.542 23.1406 172.732 13.5071 118.911 42.6324C65.0904 71.7577 30.8073 136.374 32.2694 200.773C33.7315 265.172 69.5424 326.742 121.549 359.408C140.654 371.409 162.75 379.91 184.741 376.935C203.822 374.354 221.16 363.409 240.151 360.159C270.01 355.05 299.678 369.462 325.504 386.257C351.329 403.052 376.275 422.959 405.622 430.745C434.118 438.305 469.422 416.575 495.605 395.284Z" fill="#F2F2F2"/>
<path d="M453.137 43.9847C452.489 43.5235 451.834 43.0862 451.186 42.641C432.456 29.8524 412.38 19.4632 391.374 11.6879L386.503 83.4214H355.625V1.21644C353.681 0.787083 351.722 0.381585 349.763 -6.10352e-05V83.4214H313.068C292.868 83.4214 273.494 74.8544 259.21 59.605C244.926 44.3556 236.901 23.673 236.901 2.10704V2.10696C234.935 2.56017 232.983 3.04518 231.032 3.56199V83.4215H201.144L196.505 15.0193C174.917 23.8578 154.423 35.4809 135.478 49.6299C135.15 49.8684 134.823 50.1149 134.502 50.3534C132.857 51.5858 131.233 52.8421 129.617 54.1142V327.778H217.701L216.144 304.76L207.579 178.38H380.061L371.496 304.76L369.939 327.778H457.047V46.7516C455.752 45.8134 454.448 44.8911 453.137 43.9847ZM231.032 157.508H206.164L201.569 89.6868H231.032V157.508ZM349.763 157.508H307.997V156.165C307.997 155.519 307.877 154.879 307.646 154.283C307.414 153.686 307.074 153.144 306.646 152.687C306.218 152.231 305.71 151.869 305.15 151.623C304.591 151.376 303.992 151.25 303.387 151.251H285.229C284.625 151.251 284.026 151.378 283.467 151.625C282.909 151.871 282.401 152.233 281.974 152.69C281.547 153.146 281.207 153.688 280.976 154.284C280.745 154.88 280.626 155.519 280.626 156.165V157.508H236.901V89.6868H349.763V157.508ZM355.625 157.508V89.6868H386.078L381.483 157.508H355.625Z" fill="#3F3D56"/>
<path d="M-6.10352e-05 345.303C6.46994 353.487 13.468 361.179 20.9429 368.321L565.057 369.116C572.532 361.974 579.53 354.282 586 346.098L-6.10352e-05 345.303Z" fill="#3F3D56"/>
<path d="M368.981 271.598V339.741C368.982 340.609 369.306 341.442 369.881 342.056C370.456 342.67 371.236 343.015 372.049 343.016H466.638C467.452 343.015 468.232 342.67 468.807 342.056C469.382 341.442 469.706 340.609 469.706 339.741V271.598C469.704 270.73 469.38 269.899 468.805 269.286C468.23 268.673 467.451 268.328 466.638 268.327H372.049C371.236 268.328 370.457 268.673 369.882 269.286C369.307 269.899 368.983 270.73 368.981 271.598V271.598Z" fill="#3F3D56"/>
<path d="M371.2 272.446V338.9C371.201 339.364 371.374 339.809 371.681 340.137C371.989 340.465 372.405 340.65 372.84 340.651H465.851C466.286 340.65 466.702 340.465 467.009 340.137C467.317 339.809 467.49 339.364 467.49 338.9V272.446C467.49 271.981 467.318 271.536 467.01 271.207C466.703 270.878 466.286 270.693 465.851 270.692H372.84C372.405 270.693 371.988 270.878 371.68 271.207C371.373 271.536 371.2 271.981 371.2 272.446V272.446Z" fill="#6C63FF"/>
<path d="M367.003 353.031C367.176 353.263 367.397 353.45 367.647 353.578C367.898 353.706 368.173 353.771 368.451 353.77H469.733C470.01 353.77 470.284 353.703 470.534 353.576C470.784 353.449 471.004 353.263 471.178 353.034C471.353 352.804 471.477 352.536 471.542 352.248C471.608 351.961 471.612 351.662 471.555 351.372L469.983 343.4C469.918 343.074 469.777 342.772 469.575 342.519C469.372 342.267 469.113 342.073 468.822 341.954C468.612 341.866 468.387 341.821 468.161 341.821H370.017C369.79 341.821 369.566 341.866 369.355 341.954C369.064 342.073 368.806 342.267 368.603 342.519C368.4 342.772 368.26 343.074 368.195 343.4L366.623 351.372C366.567 351.661 366.572 351.96 366.638 352.247C366.703 352.534 366.828 352.802 367.003 353.031V353.031Z" fill="#2F2E41"/>
<path d="M464.686 345.255H467.078C467.279 345.255 467.442 345.081 467.442 344.867V343.645C467.442 343.431 467.279 343.257 467.078 343.257H464.686C464.485 343.257 464.322 343.431 464.322 343.645V344.867C464.322 345.081 464.485 345.255 464.686 345.255Z" fill="#3F3D56"/>
<path d="M458.447 345.255H460.839C461.04 345.255 461.203 345.081 461.203 344.867V343.645C461.203 343.431 461.04 343.257 460.839 343.257H458.447C458.246 343.257 458.083 343.431 458.083 343.645V344.867C458.083 345.081 458.246 345.255 458.447 345.255Z" fill="#3F3D56"/>
<path d="M452.208 345.255H454.6C454.801 345.255 454.964 345.081 454.964 344.867V343.645C454.964 343.431 454.801 343.257 454.6 343.257H452.208C452.007 343.257 451.844 343.431 451.844 343.645V344.867C451.844 345.081 452.007 345.255 452.208 345.255Z" fill="#3F3D56"/>
<path d="M445.969 345.255H448.361C448.562 345.255 448.725 345.081 448.725 344.867V343.645C448.725 343.431 448.562 343.257 448.361 343.257H445.969C445.768 343.257 445.606 343.431 445.606 343.645V344.867C445.606 345.081 445.768 345.255 445.969 345.255Z" fill="#3F3D56"/>
<path d="M439.73 345.255H442.123C442.323 345.255 442.486 345.081 442.486 344.867V343.645C442.486 343.431 442.323 343.257 442.123 343.257H439.73C439.529 343.257 439.367 343.431 439.367 343.645V344.867C439.367 345.081 439.529 345.255 439.73 345.255Z" fill="#3F3D56"/>
<path d="M433.491 345.255H435.884C436.084 345.255 436.247 345.081 436.247 344.867V343.645C436.247 343.431 436.084 343.257 435.884 343.257H433.491C433.291 343.257 433.128 343.431 433.128 343.645V344.867C433.128 345.081 433.291 345.255 433.491 345.255Z" fill="#3F3D56"/>
<path d="M427.252 345.255H429.645C429.845 345.255 430.008 345.081 430.008 344.867V343.645C430.008 343.431 429.845 343.257 429.645 343.257H427.252C427.052 343.257 426.889 343.431 426.889 343.645V344.867C426.889 345.081 427.052 345.255 427.252 345.255Z" fill="#3F3D56"/>
<path d="M421.013 345.255H423.406C423.606 345.255 423.769 345.081 423.769 344.867V343.645C423.769 343.431 423.606 343.257 423.406 343.257H421.013C420.813 343.257 420.65 343.431 420.65 343.645V344.867C420.65 345.081 420.813 345.255 421.013 345.255Z" fill="#3F3D56"/>
<path d="M414.775 345.255H417.167C417.368 345.255 417.53 345.081 417.53 344.867V343.645C417.53 343.431 417.368 343.257 417.167 343.257H414.775C414.574 343.257 414.411 343.431 414.411 343.645V344.867C414.411 345.081 414.574 345.255 414.775 345.255Z" fill="#3F3D56"/>
<path d="M408.536 345.255H410.928C411.129 345.255 411.291 345.081 411.291 344.867V343.645C411.291 343.431 411.129 343.257 410.928 343.257H408.536C408.335 343.257 408.172 343.431 408.172 343.645V344.867C408.172 345.081 408.335 345.255 408.536 345.255Z" fill="#3F3D56"/>
<path d="M402.297 345.255H404.689C404.89 345.255 405.052 345.081 405.052 344.867V343.645C405.052 343.431 404.89 343.257 404.689 343.257H402.297C402.096 343.257 401.933 343.431 401.933 343.645V344.867C401.933 345.081 402.096 345.255 402.297 345.255Z" fill="#3F3D56"/>
<path d="M396.058 345.255H398.45C398.651 345.255 398.814 345.081 398.814 344.867V343.645C398.814 343.431 398.651 343.257 398.45 343.257H396.058C395.857 343.257 395.694 343.431 395.694 343.645V344.867C395.694 345.081 395.857 345.255 396.058 345.255Z" fill="#3F3D56"/>
<path d="M389.819 345.255H392.211C392.412 345.255 392.575 345.081 392.575 344.867V343.645C392.575 343.431 392.412 343.257 392.211 343.257H389.819C389.618 343.257 389.455 343.431 389.455 343.645V344.867C389.455 345.081 389.618 345.255 389.819 345.255Z" fill="#3F3D56"/>
<path d="M383.58 345.255H385.972C386.173 345.255 386.336 345.081 386.336 344.867V343.645C386.336 343.431 386.173 343.257 385.972 343.257H383.58C383.379 343.257 383.216 343.431 383.216 343.645V344.867C383.216 345.081 383.379 345.255 383.58 345.255Z" fill="#3F3D56"/>
<path d="M377.341 345.255H379.733C379.934 345.255 380.097 345.081 380.097 344.867V343.645C380.097 343.431 379.934 343.257 379.733 343.257H377.341C377.14 343.257 376.977 343.431 376.977 343.645V344.867C376.977 345.081 377.14 345.255 377.341 345.255Z" fill="#3F3D56"/>
<path d="M371.102 345.255H373.494C373.695 345.255 373.858 345.081 373.858 344.867V343.645C373.858 343.431 373.695 343.257 373.494 343.257H371.102C370.901 343.257 370.738 343.431 370.738 343.645V344.867C370.738 345.081 370.901 345.255 371.102 345.255Z" fill="#3F3D56"/>
<path d="M464.76 348.585H467.152C467.353 348.585 467.516 348.411 467.516 348.197V346.975C467.516 346.761 467.353 346.587 467.152 346.587H464.76C464.559 346.587 464.396 346.761 464.396 346.975V348.197C464.396 348.411 464.559 348.585 464.76 348.585Z" fill="#3F3D56"/>
<path d="M458.521 348.585H460.913C461.114 348.585 461.277 348.411 461.277 348.197V346.975C461.277 346.761 461.114 346.587 460.913 346.587H458.521C458.32 346.587 458.157 346.761 458.157 346.975V348.197C458.157 348.411 458.32 348.585 458.521 348.585Z" fill="#3F3D56"/>
<path d="M452.282 348.585H454.674C454.875 348.585 455.038 348.411 455.038 348.197V346.975C455.038 346.761 454.875 346.587 454.674 346.587H452.282C452.081 346.587 451.918 346.761 451.918 346.975V348.197C451.918 348.411 452.081 348.585 452.282 348.585Z" fill="#3F3D56"/>
<path d="M446.043 348.585H448.435C448.636 348.585 448.799 348.411 448.799 348.197V346.975C448.799 346.761 448.636 346.587 448.435 346.587H446.043C445.842 346.587 445.679 346.761 445.679 346.975V348.197C445.679 348.411 445.842 348.585 446.043 348.585Z" fill="#3F3D56"/>
<path d="M439.804 348.585H442.196C442.397 348.585 442.56 348.411 442.56 348.197V346.975C442.56 346.761 442.397 346.587 442.196 346.587H439.804C439.603 346.587 439.44 346.761 439.44 346.975V348.197C439.44 348.411 439.603 348.585 439.804 348.585Z" fill="#3F3D56"/>
<path d="M433.565 348.585H435.957C436.158 348.585 436.321 348.411 436.321 348.197V346.975C436.321 346.761 436.158 346.587 435.957 346.587H433.565C433.364 346.587 433.201 346.761 433.201 346.975V348.197C433.201 348.411 433.364 348.585 433.565 348.585Z" fill="#3F3D56"/>
<path d="M427.326 348.585H429.718C429.919 348.585 430.082 348.411 430.082 348.197V346.975C430.082 346.761 429.919 346.587 429.718 346.587H427.326C427.125 346.587 426.962 346.761 426.962 346.975V348.197C426.962 348.411 427.125 348.585 427.326 348.585Z" fill="#3F3D56"/>
<path d="M421.087 348.585H423.479C423.68 348.585 423.843 348.411 423.843 348.197V346.975C423.843 346.761 423.68 346.587 423.479 346.587H421.087C420.886 346.587 420.724 346.761 420.724 346.975V348.197C420.724 348.411 420.886 348.585 421.087 348.585Z" fill="#3F3D56"/>
<path d="M414.848 348.585H417.24C417.441 348.585 417.604 348.411 417.604 348.197V346.975C417.604 346.761 417.441 346.587 417.24 346.587H414.848C414.647 346.587 414.485 346.761 414.485 346.975V348.197C414.485 348.411 414.647 348.585 414.848 348.585Z" fill="#3F3D56"/>
<path d="M408.609 348.585H411.002C411.202 348.585 411.365 348.411 411.365 348.197V346.975C411.365 346.761 411.202 346.587 411.002 346.587H408.609C408.408 346.587 408.246 346.761 408.246 346.975V348.197C408.246 348.411 408.408 348.585 408.609 348.585Z" fill="#3F3D56"/>
<path d="M402.37 348.585H404.763C404.963 348.585 405.126 348.411 405.126 348.197V346.975C405.126 346.761 404.963 346.587 404.763 346.587H402.37C402.169 346.587 402.007 346.761 402.007 346.975V348.197C402.007 348.411 402.169 348.585 402.37 348.585Z" fill="#3F3D56"/>
<path d="M396.131 348.585H398.524C398.725 348.585 398.887 348.411 398.887 348.197V346.975C398.887 346.761 398.725 346.587 398.524 346.587H396.131C395.931 346.587 395.768 346.761 395.768 346.975V348.197C395.768 348.411 395.931 348.585 396.131 348.585Z" fill="#3F3D56"/>
<path d="M389.893 348.585H392.285C392.486 348.585 392.648 348.411 392.648 348.197V346.975C392.648 346.761 392.486 346.587 392.285 346.587H389.893C389.692 346.587 389.529 346.761 389.529 346.975V348.197C389.529 348.411 389.692 348.585 389.893 348.585Z" fill="#3F3D56"/>
<path d="M383.654 348.585H386.046C386.247 348.585 386.409 348.411 386.409 348.197V346.975C386.409 346.761 386.247 346.587 386.046 346.587H383.654C383.453 346.587 383.29 346.761 383.29 346.975V348.197C383.29 348.411 383.453 348.585 383.654 348.585Z" fill="#3F3D56"/>
<path d="M377.415 348.585H379.807C380.008 348.585 380.171 348.411 380.171 348.197V346.975C380.171 346.761 380.008 346.587 379.807 346.587H377.415C377.214 346.587 377.051 346.761 377.051 346.975V348.197C377.051 348.411 377.214 348.585 377.415 348.585Z" fill="#3F3D56"/>
<path d="M371.176 348.585H373.568C373.769 348.585 373.932 348.411 373.932 348.197V346.975C373.932 346.761 373.769 346.587 373.568 346.587H371.176C370.975 346.587 370.812 346.761 370.812 346.975V348.197C370.812 348.411 370.975 348.585 371.176 348.585Z" fill="#3F3D56"/>
<path d="M412.977 352.582H437.205C437.406 352.582 437.569 352.408 437.569 352.193V350.972C437.569 350.757 437.406 350.583 437.205 350.583H412.977C412.776 350.583 412.613 350.757 412.613 350.972V352.193C412.613 352.408 412.776 352.582 412.977 352.582Z" fill="#3F3D56"/>
<path d="M387.307 285.23H385.189C384.547 285.23 384.027 285.786 384.027 286.472C384.027 287.157 384.547 287.713 385.189 287.713H387.307C387.949 287.713 388.47 287.157 388.47 286.472C388.47 285.786 387.949 285.23 387.307 285.23Z" fill="white"/>
<path d="M411.529 285.23H409.411C408.769 285.23 408.249 285.786 408.249 286.472C408.249 287.157 408.769 287.713 409.411 287.713H411.529C412.171 287.713 412.692 287.157 412.692 286.472C412.692 285.786 412.171 285.23 411.529 285.23Z" fill="white"/>
<path d="M418.392 285.23H416.274C415.632 285.23 415.112 285.786 415.112 286.472C415.112 287.157 415.632 287.713 416.274 287.713H418.392C419.034 287.713 419.555 287.157 419.555 286.472C419.555 285.786 419.034 285.23 418.392 285.23Z" fill="white"/>
<path d="M404.941 285.024H391.778C391.136 285.024 390.615 285.579 390.615 286.265C390.615 286.95 391.136 287.506 391.778 287.506H404.941C405.583 287.506 406.103 286.95 406.103 286.265C406.103 285.579 405.583 285.024 404.941 285.024Z" fill="white"/>
<path d="M437.237 285.024H424.074C423.432 285.024 422.911 285.579 422.911 286.265C422.911 286.95 423.432 287.506 424.074 287.506H437.237C437.879 287.506 438.4 286.95 438.4 286.265C438.4 285.579 437.879 285.024 437.237 285.024Z" fill="white"/>
<path d="M393.766 290.833H391.648C391.006 290.833 390.486 291.389 390.486 292.074C390.486 292.76 391.006 293.316 391.648 293.316H393.766C394.409 293.316 394.929 292.76 394.929 292.074C394.929 291.389 394.409 290.833 393.766 290.833Z" fill="white"/>
<path d="M417.989 290.833H415.871C415.229 290.833 414.708 291.389 414.708 292.074C414.708 292.76 415.229 293.316 415.871 293.316H417.989C418.631 293.316 419.151 292.76 419.151 292.074C419.151 291.389 418.631 290.833 417.989 290.833Z" fill="white"/>
<path d="M424.851 290.833H422.734C422.091 290.833 421.571 291.389 421.571 292.074C421.571 292.76 422.091 293.316 422.734 293.316H424.851C425.494 293.316 426.014 292.76 426.014 292.074C426.014 291.389 425.494 290.833 424.851 290.833Z" fill="white"/>
<path d="M411.4 290.626H398.237C397.595 290.626 397.074 291.182 397.074 291.868C397.074 292.553 397.595 293.109 398.237 293.109H411.4C412.042 293.109 412.563 292.553 412.563 291.868C412.563 291.182 412.042 290.626 411.4 290.626Z" fill="white"/>
<path d="M443.696 290.626H430.533C429.891 290.626 429.371 291.182 429.371 291.868C429.371 292.553 429.891 293.109 430.533 293.109H443.696C444.338 293.109 444.859 292.553 444.859 291.868C444.859 291.182 444.338 290.626 443.696 290.626Z" fill="white"/>
<path d="M400.226 296.436H398.108C397.466 296.436 396.945 296.992 396.945 297.677C396.945 298.363 397.466 298.918 398.108 298.918H400.226C400.868 298.918 401.388 298.363 401.388 297.677C401.388 296.992 400.868 296.436 400.226 296.436Z" fill="white"/>
<path d="M424.448 296.436H422.33C421.688 296.436 421.167 296.992 421.167 297.677C421.167 298.363 421.688 298.918 422.33 298.918H424.448C425.09 298.918 425.61 298.363 425.61 297.677C425.61 296.992 425.09 296.436 424.448 296.436Z" fill="white"/>
<path d="M431.311 296.436H429.193C428.551 296.436 428.03 296.992 428.03 297.677C428.03 298.363 428.551 298.918 429.193 298.918H431.311C431.953 298.918 432.473 298.363 432.473 297.677C432.473 296.992 431.953 296.436 431.311 296.436Z" fill="white"/>
<path d="M417.859 296.229H404.696C404.054 296.229 403.534 296.785 403.534 297.47C403.534 298.156 404.054 298.712 404.696 298.712H417.859C418.501 298.712 419.022 298.156 419.022 297.47C419.022 296.785 418.501 296.229 417.859 296.229Z" fill="white"/>
<path d="M450.156 296.229H436.992C436.35 296.229 435.83 296.785 435.83 297.47C435.83 298.156 436.35 298.712 436.992 298.712H450.156C450.798 298.712 451.318 298.156 451.318 297.47C451.318 296.785 450.798 296.229 450.156 296.229Z" fill="white"/>
<path d="M406.685 302.039H404.567C403.925 302.039 403.404 302.595 403.404 303.28C403.404 303.966 403.925 304.521 404.567 304.521H406.685C407.327 304.521 407.848 303.966 407.848 303.28C407.848 302.595 407.327 302.039 406.685 302.039Z" fill="white"/>
<path d="M430.907 302.039H428.789C428.147 302.039 427.627 302.595 427.627 303.28C427.627 303.966 428.147 304.521 428.789 304.521H430.907C431.549 304.521 432.07 303.966 432.07 303.28C432.07 302.595 431.549 302.039 430.907 302.039Z" fill="white"/>
<path d="M437.77 302.039H435.652C435.01 302.039 434.49 302.595 434.49 303.28C434.49 303.966 435.01 304.521 435.652 304.521H437.77C438.412 304.521 438.933 303.966 438.933 303.28C438.933 302.595 438.412 302.039 437.77 302.039Z" fill="white"/>
<path d="M424.319 301.832H411.155C410.513 301.832 409.993 302.388 409.993 303.073C409.993 303.759 410.513 304.314 411.155 304.314H424.319C424.961 304.314 425.481 303.759 425.481 303.073C425.481 302.388 424.961 301.832 424.319 301.832Z" fill="white"/>
<path d="M411.529 324.318H409.411C408.769 324.318 408.249 324.874 408.249 325.559C408.249 326.245 408.769 326.8 409.411 326.8H411.529C412.171 326.8 412.692 326.245 412.692 325.559C412.692 324.874 412.171 324.318 411.529 324.318Z" fill="white"/>
<path d="M418.392 324.318H416.274C415.632 324.318 415.112 324.874 415.112 325.559C415.112 326.245 415.632 326.8 416.274 326.8H418.392C419.034 326.8 419.555 326.245 419.555 325.559C419.555 324.874 419.034 324.318 418.392 324.318Z" fill="white"/>
<path d="M437.237 324.525H424.074C423.432 324.525 422.911 325.08 422.911 325.766C422.911 326.451 423.432 327.007 424.074 327.007H437.237C437.879 327.007 438.4 326.451 438.4 325.766C438.4 325.08 437.879 324.525 437.237 324.525Z" fill="white"/>
<path d="M387.307 324.318H385.189C384.547 324.318 384.027 324.874 384.027 325.559C384.027 326.245 384.547 326.8 385.189 326.8H387.307C387.949 326.8 388.47 326.245 388.47 325.559C388.47 324.874 387.949 324.318 387.307 324.318Z" fill="white"/>
<path d="M404.941 324.525H391.778C391.136 324.525 390.615 325.08 390.615 325.766C390.615 326.451 391.136 327.007 391.778 327.007H404.941C405.583 327.007 406.103 326.451 406.103 325.766C406.103 325.08 405.583 324.525 404.941 324.525Z" fill="white"/>
<path d="M393.766 318.715H391.648C391.006 318.715 390.486 319.271 390.486 319.956C390.486 320.642 391.006 321.197 391.648 321.197H393.766C394.409 321.197 394.929 320.642 394.929 319.956C394.929 319.271 394.409 318.715 393.766 318.715Z" fill="white"/>
<path d="M417.989 318.715H415.871C415.229 318.715 414.708 319.271 414.708 319.956C414.708 320.642 415.229 321.197 415.871 321.197H417.989C418.631 321.197 419.151 320.642 419.151 319.956C419.151 319.271 418.631 318.715 417.989 318.715Z" fill="white"/>
<path d="M424.851 318.715H422.734C422.091 318.715 421.571 319.271 421.571 319.956C421.571 320.642 422.091 321.197 422.734 321.197H424.851C425.494 321.197 426.014 320.642 426.014 319.956C426.014 319.271 425.494 318.715 424.851 318.715Z" fill="white"/>
<path d="M411.4 318.922H398.237C397.595 318.922 397.074 319.478 397.074 320.163C397.074 320.849 397.595 321.404 398.237 321.404H411.4C412.042 321.404 412.563 320.849 412.563 320.163C412.563 319.478 412.042 318.922 411.4 318.922Z" fill="white"/>
<path d="M400.226 313.112H398.108C397.466 313.112 396.945 313.668 396.945 314.353C396.945 315.039 397.466 315.595 398.108 315.595H400.226C400.868 315.595 401.388 315.039 401.388 314.353C401.388 313.668 400.868 313.112 400.226 313.112Z" fill="white"/>
<path d="M424.448 313.112H422.33C421.688 313.112 421.167 313.668 421.167 314.353C421.167 315.039 421.688 315.595 422.33 315.595H424.448C425.09 315.595 425.61 315.039 425.61 314.353C425.61 313.668 425.09 313.112 424.448 313.112Z" fill="white"/>
<path d="M431.311 313.112H429.193C428.551 313.112 428.03 313.668 428.03 314.353C428.03 315.039 428.551 315.595 429.193 315.595H431.311C431.953 315.595 432.473 315.039 432.473 314.353C432.473 313.668 431.953 313.112 431.311 313.112Z" fill="white"/>
<path d="M417.859 313.319H404.696C404.054 313.319 403.534 313.875 403.534 314.56C403.534 315.246 404.054 315.802 404.696 315.802H417.859C418.501 315.802 419.022 315.246 419.022 314.56C419.022 313.875 418.501 313.319 417.859 313.319Z" fill="white"/>
<path d="M406.685 307.51H404.567C403.925 307.51 403.404 308.065 403.404 308.751C403.404 309.436 403.925 309.992 404.567 309.992H406.685C407.327 309.992 407.848 309.436 407.848 308.751C407.848 308.065 407.327 307.51 406.685 307.51Z" fill="white"/>
<path d="M430.907 307.51H428.789C428.147 307.51 427.627 308.065 427.627 308.751C427.627 309.436 428.147 309.992 428.789 309.992H430.907C431.549 309.992 432.07 309.436 432.07 308.751C432.07 308.065 431.549 307.51 430.907 307.51Z" fill="white"/>
<path d="M437.77 307.51H435.652C435.01 307.51 434.49 308.065 434.49 308.751C434.49 309.436 435.01 309.992 435.652 309.992H437.77C438.412 309.992 438.933 309.436 438.933 308.751C438.933 308.065 438.412 307.51 437.77 307.51Z" fill="white"/>
<path d="M424.319 307.716H411.155C410.513 307.716 409.993 308.272 409.993 308.958C409.993 309.643 410.513 310.199 411.155 310.199H424.319C424.961 310.199 425.481 309.643 425.481 308.958C425.481 308.272 424.961 307.716 424.319 307.716Z" fill="white"/>
<path d="M376.047 389.98L366.105 373.202L397.312 346.644L410.193 331.409C411.867 329.43 413.998 327.954 416.373 327.129C418.748 326.304 421.284 326.159 423.728 326.709C426.172 327.259 428.438 328.483 430.3 330.261C432.162 332.038 433.554 334.306 434.337 336.838C435.498 340.59 435.249 344.676 433.641 348.235C432.033 351.794 429.193 354.547 425.72 355.913L405.352 363.924L376.047 389.98Z" fill="#FFB6B6"/>
<path d="M142.765 268.33V349.875H196.277V268.33C196.278 267.743 196.102 267.172 195.777 266.7C195.451 266.227 194.992 265.879 194.467 265.706C194.22 265.619 193.96 265.576 193.7 265.579H145.349C145.01 265.578 144.675 265.649 144.361 265.787C144.048 265.924 143.763 266.127 143.523 266.382C143.283 266.638 143.093 266.941 142.962 267.276C142.832 267.61 142.765 267.968 142.765 268.33V268.33ZM163.648 296.349C163.662 294.741 164.27 293.205 165.34 292.073C166.41 290.942 167.855 290.307 169.361 290.307C170.867 290.307 172.312 290.942 173.381 292.073C174.451 293.205 175.059 294.741 175.073 296.349V305.811C175.065 307.423 174.46 308.966 173.39 310.103C172.319 311.24 170.871 311.878 169.361 311.878C167.851 311.878 166.402 311.24 165.332 310.103C164.261 308.966 163.656 307.423 163.648 305.811V296.349Z" fill="#2F2E41"/>
<path d="M142.601 347.267V355.13C142.602 355.538 142.754 355.928 143.023 356.217C143.292 356.506 143.657 356.67 144.039 356.673H195.003C195.385 356.671 195.751 356.507 196.02 356.218C196.289 355.929 196.441 355.538 196.441 355.13V347.267H142.601Z" fill="#3F3D56"/>
<path d="M58.5836 145.472V294.361C58.585 296.259 59.2917 298.078 60.5484 299.419C61.8052 300.761 63.5093 301.516 65.2865 301.517H271.96C273.738 301.516 275.442 300.761 276.698 299.419C277.955 298.078 278.662 296.259 278.663 294.361V145.472C278.659 143.576 277.951 141.759 276.695 140.419C275.438 139.08 273.736 138.326 271.96 138.324H65.2865C63.5108 138.326 61.8083 139.08 60.552 140.419C59.2956 141.759 58.5879 143.576 58.5836 145.472Z" fill="#3F3D56"/>
<path d="M63.4321 147.324V292.524C63.4337 293.538 63.8116 294.51 64.4831 295.227C65.1546 295.944 66.0648 296.347 67.0144 296.349H270.24C271.189 296.347 272.1 295.944 272.771 295.227C273.443 294.51 273.821 293.538 273.822 292.524V147.324C273.822 146.309 273.445 145.336 272.773 144.617C272.102 143.899 271.191 143.494 270.24 143.492H67.0144C66.0637 143.494 65.1526 143.899 64.481 144.617C63.8094 145.336 63.4322 146.309 63.4321 147.324Z" fill="white"/>
<path d="M101.147 356.14C101.354 356.417 101.617 356.64 101.916 356.793C102.215 356.946 102.543 357.024 102.875 357.023H223.781C224.112 357.022 224.438 356.943 224.737 356.791C225.035 356.639 225.298 356.418 225.506 356.144C225.714 355.87 225.863 355.549 225.941 355.206C226.018 354.863 226.024 354.506 225.956 354.16L224.079 344.643C224.001 344.255 223.834 343.894 223.592 343.592C223.35 343.291 223.041 343.059 222.694 342.918C222.442 342.812 222.174 342.758 221.904 342.759H104.744C104.474 342.758 104.206 342.812 103.955 342.918C103.608 343.059 103.299 343.291 103.057 343.592C102.815 343.894 102.647 344.255 102.57 344.643L100.693 354.16C100.626 354.506 100.632 354.862 100.711 355.205C100.789 355.547 100.938 355.867 101.147 356.14Z" fill="#2F2E41"/>
<path d="M263.645 163.494H73.4873C73.2896 163.489 73.1015 163.402 72.9633 163.251C72.8251 163.1 72.7477 162.897 72.7477 162.686C72.7477 162.475 72.8251 162.273 72.9633 162.122C73.1015 161.971 73.2896 161.884 73.4873 161.879H263.645C263.842 161.884 264.03 161.971 264.168 162.122C264.307 162.273 264.384 162.475 264.384 162.686C264.384 162.897 264.307 163.1 264.168 163.251C264.03 163.402 263.842 163.489 263.645 163.494V163.494Z" fill="#3F3D56"/>
<path d="M86.4316 157.757C88.8791 157.757 90.8633 155.592 90.8633 152.921C90.8633 150.249 88.8791 148.084 86.4316 148.084C83.984 148.084 81.9999 150.249 81.9999 152.921C81.9999 155.592 83.984 157.757 86.4316 157.757Z" fill="#3F3D56"/>
<path d="M101.741 157.757C104.189 157.757 106.173 155.592 106.173 152.921C106.173 150.249 104.189 148.084 101.741 148.084C99.2935 148.084 97.3093 150.249 97.3093 152.921C97.3093 155.592 99.2935 157.757 101.741 157.757Z" fill="#3F3D56"/>
<path d="M117.051 157.757C119.498 157.757 121.482 155.592 121.482 152.921C121.482 150.249 119.498 148.084 117.051 148.084C114.603 148.084 112.619 150.249 112.619 152.921C112.619 155.592 114.603 157.757 117.051 157.757Z" fill="#3F3D56"/>
<path d="M254.426 149.28H243.552C243.337 149.285 243.133 149.38 242.982 149.544C242.832 149.709 242.748 149.929 242.748 150.159C242.748 150.388 242.832 150.609 242.982 150.773C243.133 150.937 243.337 151.032 243.552 151.037H254.426C254.642 151.034 254.848 150.94 255 150.776C255.152 150.611 255.237 150.389 255.237 150.159C255.237 149.928 255.152 149.706 255 149.542C254.848 149.377 254.642 149.283 254.426 149.28Z" fill="#3F3D56"/>
<path d="M254.426 152.58H243.552C243.337 152.585 243.132 152.68 242.982 152.844C242.831 153.008 242.747 153.229 242.747 153.458C242.747 153.688 242.831 153.909 242.982 154.073C243.132 154.237 243.337 154.332 243.552 154.337H254.426C254.642 154.334 254.849 154.24 255.001 154.076C255.153 153.911 255.239 153.689 255.239 153.458C255.239 153.227 255.153 153.005 255.001 152.841C254.849 152.676 254.642 152.582 254.426 152.58V152.58Z" fill="#3F3D56"/>
<path d="M254.426 155.879H243.552C243.337 155.885 243.133 155.98 242.982 156.144C242.832 156.308 242.748 156.528 242.748 156.758C242.748 156.987 242.832 157.208 242.982 157.372C243.133 157.536 243.337 157.631 243.552 157.636H254.426C254.642 157.633 254.848 157.539 255 157.375C255.152 157.21 255.237 156.989 255.237 156.758C255.237 156.527 255.152 156.305 255 156.141C254.848 155.977 254.642 155.883 254.426 155.879V155.879Z" fill="#3F3D56"/>
<path d="M516.569 350.718C516.897 351.738 517.52 352.621 518.347 353.239C519.175 353.858 520.164 354.181 521.174 354.162L540.905 353.619C541.922 353.598 542.906 353.226 543.709 352.559C544.511 351.891 545.09 350.964 545.359 349.917L548.151 318.043C549.142 318.523 550.22 318.759 551.307 318.736C552.252 318.711 553.183 318.487 554.046 318.078C554.91 317.668 555.69 317.081 556.341 316.35C556.992 315.619 557.502 314.759 557.842 313.817C558.181 312.876 558.344 311.872 558.32 310.864C558.296 309.855 558.087 308.862 557.703 307.94C557.32 307.018 556.77 306.185 556.086 305.49C555.401 304.795 554.595 304.251 553.713 303.888C552.831 303.526 551.891 303.352 550.946 303.377C550.512 303.376 550.078 303.424 549.653 303.521C549.191 302.987 548.629 302.562 548.004 302.274C547.379 301.986 546.704 301.841 546.023 301.849L515.673 302.685C515.422 302.695 515.171 302.729 514.925 302.785C514.259 302.917 513.628 303.2 513.073 303.615C512.519 304.03 512.054 304.566 511.71 305.189C511.366 305.812 511.151 306.506 511.08 307.225C511.008 307.943 511.082 308.67 511.295 309.356L516.569 350.718ZM548.724 315.879L550.71 308.284C550.936 307.407 550.942 306.481 550.726 305.601C550.822 305.601 550.907 305.552 551.003 305.552C552.366 305.521 553.684 306.069 554.668 307.075C555.653 308.081 556.223 309.462 556.255 310.916C556.287 312.371 555.778 313.779 554.838 314.833C553.899 315.886 552.607 316.499 551.244 316.538C550.364 316.567 549.492 316.339 548.724 315.879Z" fill="#2F2E41"/>
<path d="M514.925 302.785C515.571 306.732 522.841 309.506 531.582 309.024C539.62 308.629 546.193 305.615 547.397 302.044C546.951 301.904 546.488 301.838 546.023 301.849L515.673 302.685C515.422 302.695 515.171 302.729 514.925 302.785V302.785Z" fill="#3F3D56"/>
<path d="M533.184 333.203C533.224 333.193 533.262 333.175 533.297 333.151L537.581 330.156C537.633 330.12 537.676 330.071 537.705 330.013C537.735 329.955 537.75 329.89 537.75 329.824C537.75 329.758 537.735 329.693 537.705 329.635C537.676 329.577 537.633 329.528 537.582 329.492L533.128 326.378C533.087 326.349 533.041 326.329 532.993 326.319C532.945 326.309 532.896 326.309 532.848 326.32C532.8 326.33 532.754 326.351 532.714 326.38C532.673 326.41 532.638 326.447 532.611 326.491C532.585 326.535 532.566 326.584 532.557 326.635C532.548 326.687 532.548 326.739 532.558 326.791C532.569 326.842 532.588 326.89 532.616 326.934C532.643 326.977 532.679 327.014 532.72 327.042L536.698 329.823L532.889 332.485C532.815 332.537 532.761 332.615 532.736 332.705C532.711 332.795 532.716 332.892 532.752 332.978C532.787 333.064 532.85 333.134 532.929 333.175C533.008 333.216 533.099 333.226 533.184 333.203H533.184Z" fill="#6C63FF"/>
<path d="M526.416 333.537C526.488 333.517 526.553 333.475 526.603 333.416C526.652 333.357 526.684 333.284 526.694 333.205C526.704 333.127 526.692 333.047 526.659 332.976C526.627 332.905 526.575 332.846 526.51 332.806L522.561 330.389L526.378 327.362C526.417 327.331 526.451 327.292 526.476 327.247C526.501 327.202 526.517 327.153 526.524 327.101C526.532 327.049 526.529 326.997 526.517 326.946C526.505 326.896 526.484 326.848 526.455 326.806C526.426 326.764 526.389 326.729 526.347 326.702C526.305 326.675 526.259 326.658 526.211 326.65C526.162 326.642 526.113 326.645 526.066 326.658C526.018 326.67 525.974 326.693 525.934 326.724L521.661 330.113C521.611 330.153 521.571 330.205 521.545 330.264C521.519 330.324 521.507 330.39 521.511 330.456C521.514 330.522 521.533 330.586 521.566 330.642C521.598 330.698 521.644 330.744 521.697 330.777L526.14 333.496C526.224 333.547 526.323 333.562 526.416 333.537V333.537Z" fill="#6C63FF"/>
<path d="M532.758 335.827C532.794 335.818 532.828 335.802 532.86 335.781C532.902 335.754 532.938 335.718 532.967 335.676C532.996 335.634 533.017 335.586 533.029 335.536C533.04 335.485 533.042 335.432 533.035 335.381C533.027 335.329 533.01 335.279 532.985 335.235L526.911 324.574C526.859 324.484 526.776 324.42 526.681 324.395C526.585 324.37 526.483 324.387 526.399 324.442C526.315 324.497 526.254 324.585 526.231 324.687C526.208 324.79 526.223 324.898 526.274 324.988L532.348 335.649C532.39 335.721 532.452 335.778 532.526 335.81C532.599 335.842 532.681 335.848 532.758 335.827Z" fill="#6C63FF"/>
<path d="M191.286 207.383H158.374C157.032 207.383 155.943 208.545 155.943 209.978V213.411C155.943 214.844 157.032 216.006 158.374 216.006H191.286C192.629 216.006 193.717 214.844 193.717 213.411V209.978C193.717 208.545 192.629 207.383 191.286 207.383Z" fill="#6C63FF"/>
<path d="M210.471 224.629H139.19C137.848 224.629 136.759 225.791 136.759 227.225V230.657C136.759 232.091 137.848 233.253 139.19 233.253H210.471C211.813 233.253 212.902 232.091 212.902 230.657V227.225C212.902 225.791 211.813 224.629 210.471 224.629Z" fill="#E6E6E6"/>
<path d="M210.471 241.876H139.19C137.848 241.876 136.759 243.038 136.759 244.472V247.904C136.759 249.338 137.848 250.5 139.19 250.5H210.471C211.813 250.5 212.902 249.338 212.902 247.904V244.472C212.902 243.038 211.813 241.876 210.471 241.876Z" fill="#E6E6E6"/>
<path d="M216.513 299.629L216.674 300.173L216.683 300.191L221.543 315.964L227.133 334.141L237.651 368.299L237.753 373.605V373.623L238.535 416.308L236.368 422.095L238.807 431.582C238.807 431.582 237.685 417.241 231.67 425.476C228.263 430.157 224.279 434.946 221.007 439.436C225.774 441.495 230.617 443.357 235.536 445.023C236.598 445.386 237.668 445.73 238.739 446.075C238.968 446.148 239.198 446.22 239.427 446.293C255.734 451.441 272.592 454.334 289.588 454.9C290.472 454.927 291.338 454.946 292.179 454.964C292.477 454.973 292.766 454.982 293.054 454.982C294.006 454.991 294.949 455 295.901 455C297.821 455 299.732 454.97 301.635 454.909C315.721 454.486 329.725 452.464 343.411 448.878C343.317 442.846 343.062 435.798 342.697 428.27C342.527 424.579 338.712 420.579 338.483 416.715C338.322 413.812 341.745 411.082 341.567 408.134C340.412 389.985 338.967 396.952 337.897 384.099C337.786 382.839 337.684 381.632 337.591 380.48C336.903 372.227 336.427 367.066 336.427 367.066L340.998 336.309L348.177 288.019L347.625 287.048L347.005 286.722L309.137 266.713L307.081 261.089C306.482 259.469 305.443 258.078 304.097 257.093C302.751 256.109 301.16 255.577 299.528 255.566L274.584 255.457C273.289 255.451 272.012 255.774 270.858 256.4C269.704 257.027 268.707 257.938 267.948 259.058L261.194 269.044L216.513 299.629Z" fill="#3F3D56"/>
<path d="M243.403 360.698L237.753 373.605L233.896 382.422L227.261 419.51L223.939 423.274L221.092 409.948L191.303 417.01C190.326 411.214 191.042 417.206 190.439 410.848C190.608 410.666 190.787 410.485 190.965 410.303C191.441 409.832 191.84 409.387 191.832 408.961C191.492 387.029 192.512 349.705 201.025 327.093C202.358 323.401 204.116 319.901 206.258 316.672C206.428 316.427 206.59 316.182 206.751 315.937C210.676 310.069 213.157 304.291 216.674 300.182V300.173C216.696 300.154 216.716 300.133 216.734 300.109C216.747 300.103 216.758 300.093 216.768 300.082L240.931 286.404L241.967 317.497L242.707 339.846L243.403 360.698Z" fill="#3F3D56"/>
<path d="M330.53 364.364L337.587 380.485L340.051 386.099L346.684 423.184L349.995 426.938L352.848 413.616L354.189 413.323L378.363 407.978L385.409 431.868C386.997 429.043 387.622 425.719 387.18 422.459C386.737 419.198 385.254 416.201 382.98 413.974C382.499 413.509 382.098 413.056 382.109 412.628C382.51 386.833 381.032 339.731 367.685 320.345C363.446 314.192 360.902 308.065 357.202 303.784C357.19 303.772 357.19 303.759 357.179 303.759L348.174 288.018L347.624 287.052L347.005 286.721L330.53 364.364Z" fill="#3F3D56"/>
<path d="M287.777 247.878C306.105 247.878 320.962 232.017 320.962 212.45C320.962 192.884 306.105 177.022 287.777 177.022C269.449 177.022 254.591 192.884 254.591 212.45C254.591 232.017 269.449 247.878 287.777 247.878Z" fill="#FFB6B6"/>
<path d="M332.631 187.704C332.374 187.41 332.064 187.175 331.719 187.013C331.375 186.85 331.004 186.763 330.627 186.758L331.126 185.279C331.289 184.813 331.333 184.309 331.254 183.819C331.174 183.329 330.974 182.871 330.674 182.491C330.374 182.11 329.985 181.822 329.546 181.655C329.107 181.489 328.635 181.449 328.177 181.542L326.36 181.915L326.531 180.619C326.597 180.137 326.544 179.644 326.377 179.19C326.21 178.736 325.936 178.336 325.58 178.029C325.225 177.723 324.801 177.521 324.35 177.442C323.899 177.364 323.437 177.412 323.008 177.582C322.619 177.746 322.2 177.814 321.783 177.783C321.365 177.751 320.959 177.62 320.595 177.399C320.23 177.185 319.913 176.889 319.666 176.53C319.419 176.172 319.248 175.76 319.165 175.324L318.532 172.064L318.465 171.889C315.382 166.403 309.454 162.412 302.2 160.949C295.742 159.637 289.121 160.305 282.739 160.933C280.207 161.187 277.347 161.473 274.963 163.032C272.938 164.368 271.225 167.039 271.575 169.735C265.281 167.675 258.534 171.786 255.19 176.97C251.228 183.14 250.58 190.868 250.475 196.911C250.192 211.207 252.955 222.903 258.668 231.681C259.085 232.317 259.189 233.644 260.016 234.09L259.845 233.795C260.768 234.288 261.706 235.084 261.356 235.934C260.351 238.383 267.032 243.798 271.738 245.587C280.326 248.855 291.743 248.576 299.772 247.4L300.055 245.372C302.952 244.951 304.992 244.148 305.566 242.891C306.579 241.969 307.443 241.142 308.195 240.379L308.202 240.371C308.217 240.355 308.247 240.331 308.262 240.315C311.889 236.602 312.731 234.487 313.11 231.267C313.475 228.111 312.827 224.906 312.165 222.02C326.122 224.326 306.668 206.15 319.672 202.636C319.821 202.587 319.973 202.547 320.126 202.516C320.506 202.421 320.886 202.326 321.251 202.214C323.01 201.705 324.694 200.937 326.256 199.932C329.89 197.571 331.089 194.438 332.966 190.908C333.237 190.405 333.35 189.824 333.29 189.247C333.23 188.671 332.999 188.13 332.631 187.704V187.704Z" fill="#2F2E41"/>
<path d="M405.149 366.887C405.142 368.278 405.127 370.226 405.067 372.635C405.06 372.969 405.052 373.311 405.045 373.661C404.948 378.09 404.851 381.803 404.695 385.929C404.687 386.215 404.68 386.494 404.665 386.78C404.457 392.536 404.129 399.239 403.563 409.854C402.513 429.461 400.681 412.549 398.841 419.427C398.752 419.769 398.655 420.174 398.565 420.651C398.287 422.382 397.817 424.071 397.165 425.684C396.19 426.304 395.184 426.901 394.194 427.497C391.371 429.175 388.504 430.789 385.614 432.323C383.99 433.182 382.359 434.025 380.721 434.836C380.46 434.963 380.207 435.09 379.954 435.209C371.563 439.353 362.916 442.875 354.073 445.752C352.345 446.309 350.625 446.849 348.882 447.35C347.065 447.891 345.247 448.4 343.408 448.877C329.723 452.464 315.719 454.487 301.634 454.912C299.734 454.975 297.82 454.999 295.899 454.999C294.946 454.999 294.007 454.991 293.054 454.983C292.763 454.983 292.473 454.975 292.183 454.967C291.341 454.944 290.47 454.928 289.591 454.904C272.594 454.338 255.736 451.444 239.43 446.293L238.738 446.078C237.665 445.728 236.6 445.387 235.535 445.021C230.62 443.359 225.776 441.499 221.005 439.439C217.363 437.873 213.763 436.193 210.206 434.398C210.173 434.389 210.143 434.373 210.116 434.351C209.371 433.985 208.619 433.603 207.875 433.214C207.778 433.158 207.673 433.102 207.569 433.047C204.791 431.6 202.043 430.084 199.325 428.499C197.038 422.893 193.821 421.82 191.825 416.89C191.244 415.426 190.824 413.894 190.573 412.326C190.573 412.31 190.566 412.295 190.566 412.271C190.775 415.228 189.68 407.023 190.559 412.239C190.551 412.144 190.544 412.04 190.536 411.921C190.514 411.635 190.484 411.285 190.439 410.848C187.885 384.22 188.049 353.768 186.939 328.674C186.865 327.052 186.788 325.499 186.708 324.015C186.686 323.522 186.656 323.037 186.626 322.56C186.678 322.417 186.738 322.266 186.805 322.123C186.819 322.081 186.837 322.042 186.857 322.003C186.879 321.954 186.904 321.906 186.932 321.86C186.946 321.836 186.969 321.805 186.984 321.781C186.995 321.754 187.007 321.727 187.021 321.701C187.088 321.59 187.162 321.471 187.244 321.359C187.282 321.312 187.311 321.272 187.349 321.232C187.374 321.192 187.404 321.154 187.438 321.121C187.461 321.083 187.488 321.048 187.52 321.018C187.55 320.986 187.58 320.946 187.617 320.906C187.633 320.881 187.653 320.86 187.676 320.843C187.735 320.77 187.8 320.704 187.87 320.644C188.136 320.383 188.42 320.144 188.719 319.928C188.823 319.857 188.935 319.785 189.039 319.706C189.79 319.226 190.58 318.822 191.4 318.497C191.683 318.386 191.966 318.282 192.272 318.171C192.383 318.139 192.488 318.1 192.599 318.06C192.763 318.004 192.927 317.948 193.098 317.909C193.947 317.638 194.863 317.408 195.854 317.193C195.973 317.169 196.1 317.145 196.226 317.114C196.405 317.074 196.591 317.042 196.777 317.01C197.031 316.963 197.291 316.915 197.552 316.867C199.764 316.493 202.274 316.215 205.044 316.032C205.305 316.016 205.566 316.001 205.826 315.985C206.132 315.969 206.437 315.953 206.75 315.937C207.011 315.921 207.279 315.913 207.547 315.905C207.807 315.889 208.076 315.881 208.351 315.873C209.103 315.849 209.878 315.826 210.667 315.81C212.917 315.762 215.285 315.778 217.773 315.834C218.927 315.865 220.104 315.897 221.31 315.953C221.392 315.953 221.467 315.961 221.541 315.961C222.591 316 223.649 316.048 224.736 316.112C225.496 316.152 226.263 316.191 227.03 316.239C227.752 316.287 228.482 316.334 229.22 316.39C229.793 316.422 230.367 316.47 230.947 316.509C231.439 316.549 231.931 316.589 232.422 316.621L233.092 316.668C233.457 316.7 233.822 316.724 234.195 316.764C235.014 316.835 235.833 316.907 236.667 316.978C237.494 317.058 238.336 317.137 239.177 317.217C240.019 317.297 240.868 317.384 241.717 317.471C241.806 317.479 241.888 317.487 241.97 317.495C242.745 317.583 243.519 317.662 244.301 317.75C244.48 317.766 244.666 317.782 244.845 317.805C245.59 317.885 246.351 317.979 247.103 318.064C247.334 318.091 247.564 318.117 247.795 318.144C248.385 318.212 248.966 318.272 249.559 318.346C250.341 318.441 251.138 318.529 251.913 318.64C252.516 318.712 253.119 318.783 253.722 318.863C254.668 318.982 255.629 319.109 256.59 319.244C256.955 319.292 257.32 319.34 257.685 319.396C260.425 319.761 263.196 320.167 266.011 320.588C270.279 321.232 274.613 321.932 278.978 322.687C283.349 323.443 287.746 324.24 292.168 325.081C293.285 325.295 294.402 325.51 295.526 325.732C296.033 325.836 296.539 325.939 297.046 326.043C297.91 326.209 298.774 326.384 299.638 326.559C300.501 326.734 301.365 326.909 302.229 327.092C303.257 327.307 304.292 327.521 305.32 327.736C312.09 329.167 318.823 330.694 325.392 332.292C326.472 332.554 327.552 332.825 328.624 333.087C330.769 333.62 332.894 334.16 334.999 334.709C335.58 334.852 336.154 335.003 336.727 335.154C338.157 335.536 339.587 335.918 340.995 336.307L341.24 336.379C342.276 336.649 343.289 336.927 344.301 337.214C346.692 337.882 349.043 338.557 351.354 339.241C352.889 339.694 354.406 340.153 355.905 340.617C358.147 341.308 360.344 342.008 362.481 342.716C363.01 342.891 363.539 343.066 364.06 343.232C365.624 343.749 367.166 344.274 368.663 344.799C369.854 345.212 371.016 345.634 372.163 346.055C373.31 346.477 374.435 346.898 375.537 347.319C376.245 347.59 376.945 347.876 377.645 348.146C378.65 348.544 379.641 348.941 380.609 349.339C380.907 349.458 381.197 349.585 381.488 349.705C381.674 349.792 381.853 349.864 382.031 349.943C382.382 350.094 382.739 350.237 383.082 350.388C383.432 350.531 383.774 350.683 384.117 350.842C384.452 350.985 384.795 351.136 385.122 351.287C385.457 351.43 385.785 351.581 386.113 351.74C386.388 351.859 386.657 351.987 386.917 352.114C387.446 352.36 387.975 352.607 388.489 352.861C388.742 352.988 388.995 353.108 389.248 353.235L389.829 353.521C389.911 353.569 389.993 353.609 390.075 353.648C390.261 353.744 390.455 353.847 390.641 353.942C391.073 354.157 391.498 354.388 391.915 354.602C392.473 354.905 393.017 355.207 393.538 355.501C394.067 355.803 394.581 356.105 395.072 356.399C395.154 356.447 395.229 356.495 395.311 356.542C395.422 356.606 395.534 356.678 395.646 356.741C396.026 356.972 396.391 357.21 396.756 357.441C397.471 357.91 398.148 358.371 398.781 358.832C398.923 358.936 399.057 359.039 399.198 359.134C399.668 359.492 400.115 359.842 400.532 360.2C400.532 360.208 400.532 360.208 400.539 360.208C400.681 360.319 400.815 360.438 400.949 360.55C401.06 360.661 401.18 360.756 401.291 360.868C401.679 361.226 402.036 361.567 402.364 361.917C402.474 362.025 402.578 362.139 402.677 362.259C402.72 362.297 402.76 362.34 402.796 362.386C402.945 362.545 403.079 362.704 403.205 362.863C403.225 362.885 403.242 362.909 403.257 362.935C403.436 363.158 403.6 363.38 403.756 363.603C403.831 363.714 403.913 363.825 403.98 363.937C404.069 364.072 404.159 364.215 404.233 364.35C404.3 364.462 404.36 364.581 404.419 364.692C404.577 364.979 404.712 365.279 404.821 365.591C404.905 365.802 404.972 366.02 405.023 366.243C405.079 366.454 405.121 366.669 405.149 366.887V366.887Z" fill="#2F2E41"/>
<path opacity="0.2" d="M405.149 366.887C405.142 368.278 405.127 370.226 405.067 372.635C405.06 372.969 405.045 373.311 405.037 373.661C404.963 377.04 404.851 381.214 404.695 385.929C404.687 386.215 404.68 386.494 404.665 386.78C404.457 392.536 404.129 399.239 403.563 409.854C402.513 429.461 400.681 412.549 398.841 419.427C393.732 416.071 388.131 412.557 382.143 408.947C381.063 408.295 379.973 407.641 378.874 406.983C366.898 399.851 353.522 392.377 339.557 384.975C339.006 384.681 338.448 384.387 337.896 384.1C305.909 367.221 270.994 350.802 242.707 339.845C237.248 337.731 232.035 335.822 227.134 334.145C216.812 330.622 207.889 328.158 201.023 327.092C193.873 325.979 188.935 326.377 186.939 328.674C186.864 327.052 186.787 325.499 186.708 324.015C186.678 323.522 186.648 323.037 186.619 322.56C186.665 322.429 186.724 322.304 186.782 322.178C186.79 322.16 186.796 322.141 186.805 322.123C186.819 322.082 186.837 322.042 186.857 322.003C186.879 321.954 186.904 321.906 186.932 321.86C186.956 321.804 186.986 321.751 187.021 321.701C187.088 321.59 187.162 321.471 187.244 321.359C187.305 321.276 187.369 321.196 187.438 321.121C187.461 321.083 187.488 321.048 187.52 321.018C187.55 320.986 187.579 320.946 187.617 320.906C187.633 320.881 187.653 320.86 187.676 320.843C187.735 320.77 187.8 320.704 187.87 320.644C188.136 320.383 188.419 320.144 188.719 319.928C188.823 319.857 188.935 319.785 189.039 319.706C189.79 319.226 190.58 318.822 191.4 318.497C191.683 318.386 191.966 318.282 192.272 318.171C192.383 318.139 192.488 318.1 192.599 318.06C192.763 318.004 192.927 317.949 193.098 317.909C193.947 317.638 194.863 317.408 195.854 317.193C196.152 317.13 196.465 317.066 196.777 317.01C197.031 316.963 197.291 316.915 197.552 316.867C199.764 316.493 202.274 316.215 205.044 316.032C205.305 316.016 205.566 316 205.826 315.985C206.132 315.969 206.437 315.953 206.75 315.937C207.011 315.921 207.279 315.913 207.547 315.905C207.807 315.889 208.076 315.881 208.351 315.873C209.103 315.849 209.878 315.826 210.667 315.81C212.917 315.77 215.285 315.786 217.772 315.841C218.927 315.865 220.104 315.905 221.31 315.961C221.385 315.961 221.467 315.969 221.541 315.969C222.591 316.001 223.656 316.056 224.736 316.112C225.496 316.152 226.263 316.191 227.03 316.239C227.752 316.287 228.482 316.334 229.22 316.39C229.793 316.422 230.366 316.47 230.947 316.509C231.439 316.549 231.931 316.589 232.422 316.621C233.01 316.668 233.599 316.716 234.195 316.764C235.014 316.835 235.833 316.907 236.667 316.978C237.494 317.058 238.336 317.137 239.177 317.217C240.019 317.296 240.868 317.384 241.717 317.471C241.806 317.479 241.888 317.487 241.97 317.495C242.745 317.583 243.519 317.662 244.301 317.75C248.636 318.219 253.097 318.767 257.685 319.396C260.425 319.769 263.201 320.169 266.011 320.596C270.279 321.24 274.613 321.94 278.978 322.687C283.35 323.443 287.746 324.24 292.168 325.08C293.285 325.295 294.402 325.51 295.526 325.732C296.897 326.003 298.267 326.278 299.638 326.559C300.502 326.734 301.365 326.909 302.229 327.092C303.257 327.307 304.292 327.521 305.32 327.736C312.09 329.167 318.823 330.694 325.392 332.292C326.472 332.554 327.552 332.825 328.624 333.087C330.769 333.62 332.894 334.16 334.999 334.709C335.58 334.86 336.154 335.011 336.727 335.162C338.165 335.544 339.587 335.926 340.995 336.307V336.315C341.077 336.331 341.159 336.355 341.24 336.379C342.268 336.657 343.289 336.935 344.301 337.222C346.692 337.889 349.043 338.563 351.354 339.241C352.889 339.702 354.408 340.156 355.905 340.617C358.147 341.316 360.344 342.016 362.481 342.716C363.01 342.891 363.539 343.066 364.06 343.233C365.624 343.757 367.158 344.279 368.663 344.799C369.855 345.212 371.016 345.634 372.163 346.055C373.31 346.477 374.435 346.898 375.537 347.319C376.252 347.59 376.952 347.868 377.645 348.138C378.658 348.536 379.641 348.933 380.609 349.339C380.907 349.458 381.197 349.585 381.488 349.705C382.031 349.927 382.56 350.158 383.082 350.388C383.432 350.532 383.774 350.683 384.117 350.842C384.452 350.985 384.795 351.136 385.122 351.287C385.457 351.43 385.785 351.581 386.113 351.74C386.388 351.859 386.657 351.987 386.917 352.114C387.446 352.36 387.975 352.607 388.489 352.861C388.742 352.988 388.995 353.108 389.248 353.235L389.829 353.521C389.911 353.569 389.993 353.609 390.075 353.648C390.708 353.966 391.319 354.284 391.915 354.602C392.473 354.905 393.017 355.207 393.538 355.501C394.156 355.851 394.745 356.193 395.311 356.542C395.422 356.606 395.534 356.678 395.646 356.741C396.026 356.972 396.391 357.21 396.756 357.441C397.471 357.91 398.148 358.371 398.781 358.832C399.407 359.293 399.988 359.747 400.532 360.2C400.532 360.208 400.532 360.208 400.539 360.208C400.8 360.43 401.053 360.653 401.291 360.868C401.679 361.226 402.036 361.567 402.364 361.917C402.474 362.025 402.578 362.139 402.677 362.259C402.72 362.297 402.76 362.34 402.796 362.386C402.952 362.569 403.109 362.752 403.258 362.935C403.436 363.158 403.6 363.38 403.757 363.603C403.831 363.714 403.913 363.825 403.98 363.937C404.069 364.072 404.159 364.215 404.233 364.35C404.3 364.462 404.36 364.581 404.419 364.692C404.577 364.979 404.712 365.279 404.822 365.591C404.903 365.803 404.97 366.02 405.023 366.243C405.079 366.454 405.121 366.669 405.149 366.887V366.887Z" fill="black"/>
</g>
<defs>
<clipPath id="clip0_30_18">
<rect width="586" height="455" fill="white"/>
</clipPath>
</defs>
</svg>
